<svg xmlns="http://www.w3.org/2000/svg" viewBox="0 0 43.94 43.94"><defs><style>.cls-1{fill:#231f20;}</style></defs><title>Attract</title><g id="Layer_2" data-name="Layer 2"><g id="Layer_1-2" data-name="Layer 1"><path class="cls-1" d="M41.81,19.84h-9l2-2a2.12,2.12,0,0,0-3-3l-5.66,5.66a2.16,2.16,0,0,0-.27.33.91.91,0,0,0-.09.17l-.11.19a2.17,2.17,0,0,0-.07.24,1.42,1.42,0,0,1-.05.16,2.23,2.23,0,0,0,0,.84.75.75,0,0,1,.05.16,1.55,1.55,0,0,0,.07.23,1.18,1.18,0,0,0,.11.19,1.51,1.51,0,0,0,.09.18,2.69,2.69,0,0,0,.27.32l5.66,5.67a2.13,2.13,0,0,0,3-3l-2-2h9a2.13,2.13,0,1,0,0-4.25Z"/><path class="cls-1" d="M9.13,26.13a2.13,2.13,0,0,0,0,3,2.12,2.12,0,0,0,3,0l5.67-5.67a2.69,2.69,0,0,0,.27-.32l.09-.18a1.14,1.14,0,0,0,.1-.19,1.55,1.55,0,0,0,.07-.23,1.42,1.42,0,0,0,.05-.16,1.79,1.79,0,0,0,0-.84.75.75,0,0,0-.05-.16,2.17,2.17,0,0,0-.07-.24l-.1-.19-.09-.17a2.16,2.16,0,0,0-.27-.33L12.13,14.8a2.12,2.12,0,0,0-3,3l2,2h-9a2.13,2.13,0,1,0,0,4.25h9Z"/><path class="cls-1" d="M22,43.94a2.12,2.12,0,0,0,2.12-2.13v-9l2,2a2.11,2.11,0,0,0,1.51.62,2.09,2.09,0,0,0,1.5-.62,2.13,2.13,0,0,0,0-3l-5.67-5.66a2.69,2.69,0,0,0-.32-.27L23,25.78l-.2-.11a1.41,1.41,0,0,0-.22-.06l-.18-.06a2.31,2.31,0,0,0-.83,0l-.18.06-.22.06-.2.11a1.29,1.29,0,0,0-.16.09,2.16,2.16,0,0,0-.33.27L14.8,31.8a2.11,2.11,0,0,0,0,3,2.12,2.12,0,0,0,3,0l2-2v9A2.13,2.13,0,0,0,22,43.94Z"/><path class="cls-1" d="M29.14,12.13a2.12,2.12,0,0,0-3-3l-2,2v-9a2.13,2.13,0,1,0-4.25,0v9l-2-2a2.12,2.12,0,0,0-3,3l5.66,5.67h0s0,0,0,0l.31.25.16.09.2.1h0a1.17,1.17,0,0,0,.2.06l.18.05h0a2.83,2.83,0,0,0,.41,0,1.84,1.84,0,0,0,.41,0l.18-.05.22-.07.21-.11.16-.08a2.69,2.69,0,0,0,.32-.27Z"/></g></g></svg>