<svg id="Layer_1" data-name="Layer 1" xmlns="http://www.w3.org/2000/svg" viewBox="0 0 128 128"><defs><style>.cls-1{fill:#231f20;}</style></defs><g id="Layer_2" data-name="Layer 2"><g id="Layer_1-2" data-name="Layer 1-2"><path class="cls-1" d="M103.68,59.88h-18l4-4a4.24,4.24,0,0,0-6-6L72.36,61.2a5.56,5.56,0,0,0-.54.66,2.79,2.79,0,0,0-.18.34l-.22.38a4.34,4.34,0,0,0-.14.48,3,3,0,0,1-.1.32,4.32,4.32,0,0,0,0,1.68,1.31,1.31,0,0,1,.1.32,2.24,2.24,0,0,0,.14.46,2,2,0,0,0,.22.38,2,2,0,0,0,.18.36,4.16,4.16,0,0,0,.54.64L83.68,78.56a4.26,4.26,0,0,0,6-6l-4-4h18a4.26,4.26,0,1,0,.58-8.5,5.61,5.61,0,0,0-.58,0Z"/><path class="cls-1" d="M38.32,72.46a4.25,4.25,0,0,0,6,6h0L55.66,67.12a4.16,4.16,0,0,0,.54-.64l.18-.36a1.72,1.72,0,0,0,.2-.38,2.24,2.24,0,0,0,.14-.46,3,3,0,0,0,.1-.32,3.67,3.67,0,0,0,0-1.68,1.31,1.31,0,0,0-.1-.32,4.34,4.34,0,0,0-.14-.48l-.2-.38-.18-.34a5.56,5.56,0,0,0-.54-.66L44.32,49.8a4.24,4.24,0,0,0-6,6l4,4h-18a4.26,4.26,0,1,0-.58,8.5,2.81,2.81,0,0,0,.58,0h18Z"/><path class="cls-1" d="M64.06,108.08a4.24,4.24,0,0,0,4.24-4.24v-18l4,4a4.19,4.19,0,0,0,3,1.24,4.12,4.12,0,0,0,3-1.24,4.26,4.26,0,0,0,0-6L67,72.5a6.76,6.76,0,0,0-.64-.54l-.28-.2-.4-.22a3.17,3.17,0,0,0-.44-.12l-.36-.12a4.63,4.63,0,0,0-1.66,0l-.36.12-.44.12-.4.22-.32.18a4.32,4.32,0,0,0-.66.54L49.66,83.8a4.22,4.22,0,0,0,0,6l0,0a4.25,4.25,0,0,0,6,0h0l4-4v18a4.27,4.27,0,0,0,4.24,4.29Z"/><path class="cls-1" d="M78.34,44.46a4.24,4.24,0,0,0-6-6l-4,4v-18a4.26,4.26,0,1,0-8.5-.58,5.61,5.61,0,0,0,0,.58v18l-4-4a4.24,4.24,0,0,0-6,6L61.16,55.8h0l.62.5.32.18.4.2h0a1.42,1.42,0,0,0,.4.12l.36.1h0a5.61,5.61,0,0,0,.82,0,2.82,2.82,0,0,0,.82,0l.36-.1.44-.14.42-.22.32-.16a4.69,4.69,0,0,0,.64-.54Z"/></g></g></svg>