<svg id="Layer_1" data-name="Layer 1" xmlns="http://www.w3.org/2000/svg" viewBox="0 0 128 128"><defs><style>.cls-1{fill:#231f20;}</style></defs><g id="Layer_2" data-name="Layer 2"><g id="Layer_1-2" data-name="Layer 1-2"><path class="cls-1" d="M99.49,43.08l-30.8-20a4.24,4.24,0,0,0-5.85,1.29l0,0L27.25,79l-.16.34c-.07.12-.14.24-.2.36a.51.51,0,0,1-.14.42c-.14.14,0,.26,0,.38a3.53,3.53,0,0,0,0,.46,2.41,2.41,0,0,0,0,.38,3.84,3.84,0,0,0,0,.48v.34h-.18a.51.51,0,0,0,.14.42,1.9,1.9,0,0,0,.12.36c0,.14.14.26.2.4a1.39,1.39,0,0,0,.2.34,3.05,3.05,0,0,0,.32.38l.3.28a3.72,3.72,0,0,0,.66.54l30.8,20a3.77,3.77,0,0,0,1.1.5,4.11,4.11,0,0,0,1.2.18h0a3.58,3.58,0,0,0,1.08-.16h0l.62-.26h.2a3.48,3.48,0,0,0,.8-.58l.26-.22a5.23,5.23,0,0,0,.48-.56v-.1L100.73,49a4.24,4.24,0,0,0-1.24-5.88ZM77.11,69.7a4,4,0,0,0-2-.86l-28-4.7L67.63,32.52,91.29,47.88Z"/></g></g></svg>