<svg xmlns="http://www.w3.org/2000/svg" viewBox="0 0 37.43 41.62"><defs><style>.cls-1{fill:#231f20;}</style></defs><title>Erase</title><g id="Layer_2" data-name="Layer 2"><g id="Layer_1-2" data-name="Layer 1"><path class="cls-1" d="M36.46,10.35,21.06.34A2.12,2.12,0,0,0,18.12,1L.34,28.33l-.08.17a1.62,1.62,0,0,0-.1.18c0,.07,0,.14-.07.21s0,.13,0,.19a2,2,0,0,0,0,.23,1.37,1.37,0,0,0,0,.19,1.94,1.94,0,0,0,0,.24c0,.05,0,.11,0,.17H0c0,.07,0,.14.07.21a1.27,1.27,0,0,0,.06.18c0,.07.07.13.1.2s.06.12.1.17a1.46,1.46,0,0,0,.16.19L.64,31a2.16,2.16,0,0,0,.33.27l15.4,10a2,2,0,0,0,.55.25,2.08,2.08,0,0,0,.6.09h0a2,2,0,0,0,.54-.08h0l.31-.13.1,0a2,2,0,0,0,.4-.29L19,41a3.48,3.48,0,0,0,.24-.28l0-.05L37.08,13.29a2.1,2.1,0,0,0,.3-1.6A2.13,2.13,0,0,0,36.46,10.35ZM25.27,23.66a2,2,0,0,0-1-.43L10.25,20.88,20.53,5.07l11.83,7.68Z"/></g></g></svg>