<svg xmlns="http://www.w3.org/2000/svg" viewBox="0 0 25.36 25.51"><defs><style>.cls-1{fill:#231f20;}</style></defs><title>Orient</title><g id="Layer_2" data-name="Layer 2"><g id="Layer_1-2" data-name="Layer 1"><path class="cls-1" d="M9.22,18.43a2.15,2.15,0,0,0,1.51-.64L21.11,7.3v3.33a2.13,2.13,0,1,0,4.25,0V2.13h0a2,2,0,0,0-.05-.42c0-.05,0-.09,0-.14a1,1,0,0,0-.08-.25.69.69,0,0,0-.1-.19L25,.94a2.08,2.08,0,0,0-.27-.32h0l-.1-.07A1.45,1.45,0,0,0,24.4.35L24.24.26,24,.16A1.66,1.66,0,0,0,23.83.1,1.06,1.06,0,0,0,23.64,0a1.66,1.66,0,0,0-.32,0H14.73a2.13,2.13,0,1,0,0,4.25h3.41L7.7,14.8a2.14,2.14,0,0,0,1.52,3.63Z"/><path class="cls-1" d="M1.58,24.91a3.6,3.6,0,0,0,.61.33,3.86,3.86,0,0,0,.66.2,3.26,3.26,0,0,0,.7.07A3.55,3.55,0,0,0,7.09,22a3.33,3.33,0,0,0-.07-.7,3.13,3.13,0,0,0-.2-.66A3.6,3.6,0,0,0,6.49,20a2.88,2.88,0,0,0-.44-.54,3.59,3.59,0,0,0-3.2-1,5,5,0,0,0-.66.2,3.6,3.6,0,0,0-.61.33,3.84,3.84,0,0,0-.54.44A3.34,3.34,0,0,0,.6,20a3.6,3.6,0,0,0-.33.61,5,5,0,0,0-.2.66A4.15,4.15,0,0,0,0,22a3.56,3.56,0,0,0,1,2.5A3.25,3.25,0,0,0,1.58,24.91Z"/></g></g></svg>