<svg id="Layer_1" data-name="Layer 1" xmlns="http://www.w3.org/2000/svg" viewBox="0 0 128 128"><defs><style>.cls-1{fill:#231f20;}</style></defs><g id="Layer_2" data-name="Layer 2"><g id="Layer_1-2" data-name="Layer 1-2"><path class="cls-1" d="M57.08,75.36a4.31,4.31,0,0,0,3-1.28l20.76-21v6.66a4.26,4.26,0,1,0,8.5.58,5.61,5.61,0,0,0,0-.58v-17h0a4.6,4.6,0,0,0-.1-.84v-.28a2.66,2.66,0,0,0-.16-.5,1.52,1.52,0,0,0-.2-.38l-.26-.38a4.16,4.16,0,0,0-.54-.64h0l-.2-.14a2.87,2.87,0,0,0-.46-.4L87.12,39l-.48-.2-.34-.12a2,2,0,0,0-.38-.2,3.42,3.42,0,0,0-.64,0H68.1a4.26,4.26,0,1,0-.59,8.5h7.41L54,68.1a4.28,4.28,0,0,0,3,7.26Z"/><path class="cls-1" d="M41.8,88.32A6.83,6.83,0,0,0,43,89a8.08,8.08,0,0,0,1.32.4,7.23,7.23,0,0,0,1.4.14,7.11,7.11,0,0,0,7.08-7,7.3,7.3,0,0,0-.14-1.4,6.51,6.51,0,0,0-.4-1.32,7.37,7.37,0,0,0-.66-1.28,5.77,5.77,0,0,0-.88-1.08,7.17,7.17,0,0,0-6.4-2,8.73,8.73,0,0,0-1.32.4,6.83,6.83,0,0,0-1.22.66,7,7,0,0,0-1.08.88,6.08,6.08,0,0,0-.88,1.14,6.83,6.83,0,0,0-.66,1.22,8.73,8.73,0,0,0-.4,1.32,7.94,7.94,0,0,0-.14,1.46,7.08,7.08,0,0,0,2,5A6.38,6.38,0,0,0,41.8,88.32Z"/></g></g></svg>