<svg id="Layer_1" data-name="Layer 1" xmlns="http://www.w3.org/2000/svg" viewBox="0 0 128 128"><defs><style>.cls-1{fill:#231f20;}</style></defs><g id="Layer_2" data-name="Layer 2"><g id="Layer_1-2" data-name="Layer 1-2"><path class="cls-1" d="M27.15,59.69a4.22,4.22,0,0,0,3-1.26L51.23,37.35v6.74a4.26,4.26,0,1,0,8.52,0h0v-17a4.81,4.81,0,0,0-.1-.84c0-.12-.06-.24-.1-.36s-.09-.3-.14-.44l-.2-.4L59,24.83a3.11,3.11,0,0,0-.52-.62h0a5.9,5.9,0,0,0-.62-.5l-.38-.34-.4-.22L56.67,23h-.34a3.93,3.93,0,0,0-.84,0h-17a4.26,4.26,0,1,0-.59,8.5h7.33L24.13,52.43a4.25,4.25,0,0,0,3,7.26Z"/><path class="cls-1" d="M78.17,37h6.72L35.47,86.43a4.25,4.25,0,0,0,3,7.26,4.2,4.2,0,0,0,3-1.24L90.89,43v6.74a4.26,4.26,0,1,0,8.5.58,5.61,5.61,0,0,0,0-.58V32.83a5.89,5.89,0,0,0,0-.84l-.12-.34c0-.15-.09-.3-.14-.44a1.63,1.63,0,0,0-.24-.38,2.21,2.21,0,0,0-.18-.34c-.16-.21-.33-.42-.5-.62h0a4.38,4.38,0,0,0-.62-.52l-.34-.18-.36-.34-.46-.14-.34-.1a3.93,3.93,0,0,0-.84,0h-17a4.26,4.26,0,0,0,0,8.52h0Z"/><path class="cls-1" d="M79.59,72.43a4.24,4.24,0,0,0,4.22,4.26h6.76L69.49,97.77a4.26,4.26,0,0,0,0,6,4.16,4.16,0,0,0,3,1.24,4.23,4.23,0,0,0,3-1.24L96.59,82.71v6.74a4.26,4.26,0,0,0,8.5,0v-17a3.75,3.75,0,0,0,0-.82c0-.12-.06-.24-.1-.36s-.09-.3-.14-.44-.14-.27-.22-.4l-.18-.34a5,5,0,0,0-.5-.62h0a5.9,5.9,0,0,0-.62-.5l-.34-.2-.4-.2-.44-.14-.36-.1a3.75,3.75,0,0,0-.82,0H83.83A4.24,4.24,0,0,0,79.59,72.43Z"/></g></g></svg>