<svg xmlns="http://www.w3.org/2000/svg" viewBox="0 0 41.1 41.1"><defs><style>.cls-1{fill:#231f20;}</style></defs><title>Pull</title><g id="Layer_2" data-name="Layer 2"><g id="Layer_1-2" data-name="Layer 1"><path class="cls-1" d="M2.13,18.43a2.11,2.11,0,0,0,1.5-.63L14.17,7.26v3.37a2.13,2.13,0,1,0,4.26,0V2.13a2,2,0,0,0-.05-.42,1.21,1.21,0,0,0-.05-.18,1.87,1.87,0,0,0-.07-.22l-.1-.2L18.07,1a1.58,1.58,0,0,0-.26-.31v0h0a2.42,2.42,0,0,0-.31-.25L17.31.27l-.2-.11L16.89.09l-.17,0a2,2,0,0,0-.42,0H7.8a2.13,2.13,0,1,0,0,4.25h3.37L.62,14.8a2.13,2.13,0,0,0,1.51,3.63Z"/><path class="cls-1" d="M27.64,7.09H31L6.29,31.8A2.13,2.13,0,0,0,7.8,35.43a2.1,2.1,0,0,0,1.5-.62L34,10.09v3.37a2.13,2.13,0,1,0,4.25,0V5a3,3,0,0,0,0-.42l-.06-.17a1.42,1.42,0,0,0-.07-.22A.75.75,0,0,0,38,4a.91.91,0,0,0-.09-.17,3.76,3.76,0,0,0-.25-.31h0a1.94,1.94,0,0,0-.31-.26l-.17-.09L37,3l-.23-.07-.17-.05a2,2,0,0,0-.42,0h-8.5a2.13,2.13,0,1,0,0,4.26Z"/><path class="cls-1" d="M28.35,24.8a2.12,2.12,0,0,0,2.12,2.13h3.37L23.3,37.47a2.13,2.13,0,0,0,0,3,2.09,2.09,0,0,0,1.5.62,2.11,2.11,0,0,0,1.51-.62L36.85,29.94v3.37a2.13,2.13,0,0,0,4.25,0V24.8a1.84,1.84,0,0,0,0-.41,1,1,0,0,0-.05-.18,1.42,1.42,0,0,0-.07-.22,2,2,0,0,0-.11-.2,1.4,1.4,0,0,0-.09-.17,2.42,2.42,0,0,0-.25-.31h0a2.42,2.42,0,0,0-.31-.25l-.17-.1-.2-.1-.22-.07-.18-.05a1.84,1.84,0,0,0-.41,0H30.47A2.12,2.12,0,0,0,28.35,24.8Z"/></g></g></svg>