<svg xmlns="http://www.w3.org/2000/svg" viewBox="0 0 43.93 43.94"><defs><style>.cls-1{fill:#231f20;}</style></defs><title>Repulse</title><g id="Layer_2" data-name="Layer 2"><g id="Layer_1-2" data-name="Layer 1"><path class="cls-1" d="M26.13,9.3a2.15,2.15,0,0,0,1.51.62,2.13,2.13,0,0,0,1.5-3.63L23.47.62h0a2.42,2.42,0,0,0-.31-.25C23.09.32,23,.3,23,.26l-.2-.1L22.56.09l-.18,0a2.31,2.31,0,0,0-.83,0l-.18,0-.22.07L21,.26c-.06,0-.12.06-.17.1a1.89,1.89,0,0,0-.31.25h0L14.79,6.29a2.13,2.13,0,0,0,3,3l2-2v9a2.13,2.13,0,0,0,4.25,0v-9Z"/><path class="cls-1" d="M43.67,23l.1-.2a1.42,1.42,0,0,0,.07-.22,1,1,0,0,0,0-.18,1.94,1.94,0,0,0,0-.83,1.21,1.21,0,0,0,0-.18,1.87,1.87,0,0,0-.07-.22l-.1-.2-.09-.16a1.94,1.94,0,0,0-.26-.31v0l-5.67-5.67a2.12,2.12,0,0,0-3,3l2,2h-9a2.13,2.13,0,1,0,0,4.25h9l-2,2a2.13,2.13,0,0,0,0,3,2.12,2.12,0,0,0,3,0l5.67-5.67h0a2.51,2.51,0,0,0,.26-.31Z"/><path class="cls-1" d="M26.13,34.64l-2,2v-9a2.13,2.13,0,1,0-4.25,0v9l-2-2a2.12,2.12,0,0,0-3,3l5.67,5.67h0a1.94,1.94,0,0,0,.31.26l.17.09.19.1.22.07.18,0a2,2,0,0,0,.42,0,1.84,1.84,0,0,0,.41,0l.19,0,.21-.07.2-.1.17-.09a2.51,2.51,0,0,0,.31-.26h0l5.67-5.67a2.12,2.12,0,0,0-3-3Z"/><path class="cls-1" d="M.16,22.78a1.28,1.28,0,0,0,.11.2,1.4,1.4,0,0,0,.09.17,2.42,2.42,0,0,0,.25.31h0l5.67,5.67a2.14,2.14,0,0,0,3,0,2.13,2.13,0,0,0,0-3l-2-2h9a2.13,2.13,0,0,0,0-4.25h-9l2-2a2.13,2.13,0,0,0-3-3L.62,20.46v0a1.89,1.89,0,0,0-.25.31A1.29,1.29,0,0,0,.27,21a2,2,0,0,0-.11.2c0,.07,0,.15-.07.22s0,.12,0,.18a2.31,2.31,0,0,0,0,.83c0,.07,0,.12,0,.18S.13,22.71.16,22.78Z"/></g></g></svg>