<svg id="Layer_1" data-name="Layer 1" xmlns="http://www.w3.org/2000/svg" viewBox="0 0 128 128"><defs><style>.cls-1{fill:#231f20;}</style></defs><g id="Layer_2" data-name="Layer 2"><g id="Layer_1-2" data-name="Layer 1-2"><path class="cls-1" d="M72.32,38.71a4.33,4.33,0,0,0,3,1.24,4.26,4.26,0,0,0,3-7.26L67,21.35h0a4.24,4.24,0,0,0-.62-.5c-.14-.1-.32-.14-.32-.22l-.4-.2-.48-.14h-.36a4.63,4.63,0,0,0-1.66,0H62.8l-.44.14-.3.2c-.12,0-.24.12-.34.2a3.67,3.67,0,0,0-.62.5h0L49.64,32.69a4.26,4.26,0,0,0,6,6l4-4v18a4.26,4.26,0,0,0,8.5,0v-18Z"/><path class="cls-1" d="M107.4,66.11l.2-.4a2.49,2.49,0,0,0,.14-.44,2.16,2.16,0,0,0,0-.36,3.87,3.87,0,0,0,0-1.66,2.16,2.16,0,0,0,0-.36,2.25,2.25,0,0,0-.14-.44l-.2-.4-.18-.32a3.11,3.11,0,0,0-.52-.62h0L95.36,49.77a4.24,4.24,0,0,0-6,6l4,4h-18a4.26,4.26,0,1,0-.58,8.5,5.61,5.61,0,0,0,.58,0h18l-4,4a4.24,4.24,0,0,0,6,6h0L106.7,66.93h0a5,5,0,0,0,.52-.62Z"/><path class="cls-1" d="M72.32,89.39l-4,4v-18a4.26,4.26,0,1,0-8.5-.59,5.81,5.81,0,0,0,0,.59v18l-4-4a4.24,4.24,0,0,0-6,6l11.34,11.34h0a5.17,5.17,0,0,0,.62.52l.34.18.38.2.44.14h.36a3.93,3.93,0,0,0,.84,0,3.75,3.75,0,0,0,.82,0h.38l.42-.14.4-.2.34-.18a5.17,5.17,0,0,0,.62-.52h0L78.46,95.39a4.24,4.24,0,0,0-6-6Z"/><path class="cls-1" d="M20.38,65.67a3.11,3.11,0,0,0,.22.4,2.79,2.79,0,0,0,.18.34,5.9,5.9,0,0,0,.5.62h0L32.62,78.37a4.24,4.24,0,0,0,6-6l-4-4h18a4.26,4.26,0,0,0,0-8.5h-18l4-4a4.26,4.26,0,0,0-6-6L21.3,61h0a3.39,3.39,0,0,0-.5.62,2.37,2.37,0,0,0-.2.46c-.08.13-.15.26-.22.4a.56.56,0,0,1-.14.44c-.14.14,0,.24,0,.36a4.63,4.63,0,0,0,0,1.66v.36C20.24,65.45,20.32,65.53,20.38,65.67Z"/></g></g></svg>