<svg id="Layer_1" data-name="Layer 1" xmlns="http://www.w3.org/2000/svg" viewBox="0 0 128 128"><defs><style>.cls-1{fill:#231f20;}</style></defs><g id="Layer_2" data-name="Layer 2"><g id="Layer_1-2" data-name="Layer 1-2"><path class="cls-1" d="M35.32,69.42a4.18,4.18,0,0,0,1.77-2.72l5.59-29.28L46.47,43a4.26,4.26,0,1,0,7.05-4.79h0L44,24.14a3.78,3.78,0,0,0-.56-.64,1.61,1.61,0,0,0-.28-.24,4.39,4.39,0,0,0-.36-.28l-.39-.22-.28-.08a2.7,2.7,0,0,0-.77-.22h0a4.33,4.33,0,0,0-.8-.07l-.5-.07-.46,0-.44.14-.28.19a4.08,4.08,0,0,0-.7.47L24.09,32.71a4.26,4.26,0,0,0,4.29,7.36,4.07,4.07,0,0,0,.48-.33L34.44,36l-5.7,29.17a4.25,4.25,0,0,0,6.58,4.3Z"/><path class="cls-1" d="M73.58,42H80.3L30.88,91.37a4.25,4.25,0,0,0,3,7.26,4.2,4.2,0,0,0,3-1.24L86.3,48v6.74a4.26,4.26,0,0,0,8.5.59,5.81,5.81,0,0,0,0-.59V37.77a5.89,5.89,0,0,0,0-.84l-.12-.34a3.73,3.73,0,0,0-.14-.44,1.52,1.52,0,0,0-.24-.38,2.21,2.21,0,0,0-.18-.34c-.16-.21-.33-.42-.5-.62h0a4.38,4.38,0,0,0-.62-.52l-.34-.18-.36-.34-.46-.14-.34-.1a3.93,3.93,0,0,0-.84,0h-17a4.26,4.26,0,1,0,0,8.52h0Z"/><path class="cls-1" d="M83.9,75.8a4.25,4.25,0,0,0,1.22,5.88h0l5.65,3.68L61.61,91.53a4.27,4.27,0,0,0-3.27,5,4.26,4.26,0,0,0,5,3.28l29.15-6.15-3.68,5.65A4.26,4.26,0,0,0,96,104l9.28-14.26a3.41,3.41,0,0,0,.45-.69,1.5,1.5,0,0,0,.11-.36,2.23,2.23,0,0,0,.13-.44,3.44,3.44,0,0,0,0-.46c0-.12,0-.25,0-.38a5.16,5.16,0,0,0-.09-.79h0a5.15,5.15,0,0,0-.24-.76l-.18-.35-.22-.39-.3-.36-.24-.28a4.23,4.23,0,0,0-.69-.44L89.7,74.67A4.24,4.24,0,0,0,83.9,75.8Z"/></g></g></svg>