<svg xmlns="http://www.w3.org/2000/svg" viewBox="0 0 32.6 37.19"><defs><style>.cls-1{fill:#231f20;}</style></defs><title>SwirlCW</title><g id="Layer_2" data-name="Layer 2"><g id="Layer_1-2" data-name="Layer 1"><path class="cls-1" d="M0,20.89a16.3,16.3,0,1,0,26.08-13,2.13,2.13,0,1,0-2.55,3.4A12.06,12.06,0,1,1,11.91,9.68l-1.53,2.38A2.12,2.12,0,1,0,14,14.36l4.34-6.73h0a2.19,2.19,0,0,0,.34-1.2,2.12,2.12,0,0,0-1-1.74L10.93.34A2.13,2.13,0,0,0,8.62,3.91L11,5.48A16.31,16.31,0,0,0,0,20.89Z"/></g></g></svg>