<svg id="Layer_1" data-name="Layer 1" xmlns="http://www.w3.org/2000/svg" viewBox="0 0 128 128"><defs><style>.cls-1{fill:#231f20;}</style></defs><g id="Layer_2" data-name="Layer 2"><g id="Layer_1-2" data-name="Layer 1-2"><path class="cls-1" d="M31.4,68.49a32.6,32.6,0,1,0,52.16-26A4.26,4.26,0,0,0,78,48.94l.47.35a24.13,24.13,0,1,1-23.24-3.22l-3.06,4.76a4.29,4.29,0,1,0,7.24,4.6L68.08,42h0a4.45,4.45,0,0,0,.68-2.4,4.22,4.22,0,0,0-2-3.48l-13.5-8.7a4.26,4.26,0,0,0-4.62,7.14l4.76,3.14A32.61,32.61,0,0,0,31.4,68.49Z"/></g></g></svg>